<?xml version="1.0" encoding="UTF-8"?>
<svg xmlns="http://www.w3.org/2000/svg" version="1.1" viewBox="0 0 107 32">
  <!-- Generator: Adobe Illustrator 28.7.1, SVG Export Plug-In . SVG Version: 1.2.0 Build 142)  -->
  <g>
    <g id="Layer_1">
      <path d="M18,24.3c0,3.5,1.5,5.6,4.4,5.6s3.5-1.8,3.8-2.8c0,0,0,0,0,0,0,0,0,0,0,0h1.8c0,0,.1,0,.1.1,0,1.3-1.6,4.5-5.8,4.5s-6.4-3-6.4-7.3,2.3-7.3,6.4-7.3,5.8,3.4,5.8,4.5,0,.1-.1.1h-1.8s0,0,0,0c0,0,0,0,0,0-.3-.9-1.1-2.8-3.8-2.8s-4.4,2.1-4.4,5.6ZM39.4,26.3c0,3.2-1.9,5.3-5,5.3s-5-2.2-5-5.3,1.8-5.3,5-5.3,5,2.2,5,5.3ZM37.5,26.3c0-2.1-1.2-3.6-3.1-3.6s-3.1,1.5-3.1,3.6,1.2,3.6,3.1,3.6,3.1-1.5,3.1-3.6ZM51.8,21c-1,0-2.3.3-3.1,1.2-.1.1-.1,0-.2,0-1-.9-1.5-1.2-2.9-1.2s-2,.5-2.4,1.2c0,0-.2.1-.2,0l-.2-.9c0,0,0-.1-.1-.1h-1.5s0,0,0,0c0,0,0,0,0,0,0,0,0,0,0,0,0,0,0,0,0,0v10s0,0,0,0c0,0,0,0,0,0,0,0,0,0,0,0,0,0,0,0,0,0h1.7s0,0,0,0c0,0,0,0,0,0,0,0,0,0,0,0,0,0,0,0,0,0v-5.6c0-1.6.5-3.1,2.2-3.1s2.3,1.5,2.3,3.1v5.6s0,0,0,0c0,0,0,0,0,0,0,0,0,0,0,0h1.7s0,0,0,0c0,0,0,0,0,0,0,0,0,0,0,0s0,0,0,0v-5.6c0-1.6.3-3.1,2.2-3.1s2.3,1.5,2.3,3.1v5.6s0,0,0,0c0,0,0,0,0,0,0,0,0,0,0,0,0,0,0,0,0,0h1.7s0,0,0,0c0,0,0,0,0,0,0,0,0,0,0,0,0,0,0,0,0,0v-5.6c0-3-1.4-4.8-4-4.8ZM68.9,21c-1,0-2.3.3-3.1,1.2-.1.1-.1,0-.2,0-1-.9-1.5-1.2-2.9-1.2s-2,.5-2.4,1.2c0,0-.2.1-.2,0l-.2-.9c0,0,0-.1-.1-.1h-1.5s0,0,0,0c0,0,0,0,0,0,0,0,0,0,0,0,0,0,0,0,0,0v10s0,0,0,0c0,0,0,0,0,0,0,0,0,0,0,0,0,0,0,0,0,0h1.7s0,0,0,0c0,0,0,0,0,0,0,0,0,0,0,0,0,0,0,0,0,0v-5.6c0-1.6.5-3.1,2.2-3.1s2.3,1.5,2.3,3.1v5.6s0,0,0,0c0,0,0,0,0,0,0,0,0,0,0,0h1.7s0,0,0,0c0,0,0,0,0,0,0,0,0,0,0,0,0,0,0,0,0,0v-5.6c0-1.6.3-3.1,2.2-3.1s2.3,1.5,2.3,3.1v5.6s0,0,0,0c0,0,0,0,0,0,0,0,0,0,0,0,0,0,0,0,0,0h1.7s0,0,0,0c0,0,0,0,0,0,0,0,0,0,0,0,0,0,0,0,0,0v-5.6c0-3-1.4-4.8-4-4.8ZM84.4,26.3c0,3.2-1.9,5.3-5,5.3s-5-2.2-5-5.3,1.8-5.3,5-5.3,5,2.2,5,5.3ZM82.5,26.3c0-2.1-1.2-3.6-3.1-3.6s-3.1,1.5-3.1,3.6,1.2,3.6,3.1,3.6,3.1-1.5,3.1-3.6ZM91,21c-1.4,0-2.2.6-2.6,1.2,0,0-.2.1-.2,0l-.2-.9c0,0,0-.1-.1-.1h-1.5s0,0,0,0c0,0,0,0,0,0,0,0,0,0,0,0,0,0,0,0,0,0v10s0,0,0,0c0,0,0,0,0,0,0,0,0,0,0,0,0,0,0,0,0,0h1.7s0,0,0,0c0,0,0,0,0,0,0,0,0,0,0,0,0,0,0,0,0,0v-5.6c0-1.6,1-3.1,2.7-3.1s2.7,1.5,2.7,3.1v5.6s0,0,0,0c0,0,0,0,0,0,0,0,0,0,0,0,0,0,0,0,0,0h1.7s0,0,0,0c0,0,0,0,0,0,0,0,0,0,0,0,0,0,0,0,0,0v-5.6c0-2.6-1.5-4.8-4.4-4.8ZM101.5,25.3c-1-.1-2.5-.2-2.5-1.3s.7-1.3,2.2-1.3,2.5.7,2.5,1.8c0,0,0,0,0,0,0,0,0,0,0,0,0,0,0,0,0,0,0,0,0,0,0,0h1.7c0,0,0,0,0-.1,0-2.4-2-3.6-4.4-3.6s-4.1,1.4-4.1,3c0,2.5,2.4,2.8,4.4,3,.8.1,2.5.2,2.5,1.3s-1.5,1.5-2.5,1.5c-1.6,0-2.6-.8-2.6-1.8,0,0,0,0,0,0,0,0,0,0,0,0h-1.7s0,0,0,0c0,0,0,0,0,0,0,0,0,0,0,0,0,0,0,0,0,0,0,1.9,1.5,3.6,4.6,3.6s4.4-1,4.4-3.3-2.4-2.8-4.4-3.1ZM14.7.3h-3.3c0,0-.1,0-.1.1l-3.6,12.1s0,0,0,0c0,0,0,0,0,0s0,0,0,0c0,0,0,0,0,0L3.8.4c0,0,0-.1-.1-.1H.4s0,0,0,0c0,0,0,0,0,0,0,0,0,0,0,0,0,0,0,0,0,0v14s0,0,0,0c0,0,0,0,0,0,0,0,0,0,0,0,0,0,0,0,0,0h1.7s0,0,0,0,0,0,0,0c0,0,0,0,0,0,0,0,0,0,0,0V2.3s0,0,0,0c0,0,0,0,0,0,0,0,0,0,0,0,0,0,0,0,0,0l3.6,12.1s0,0,0,0c0,0,0,0,0,0h2.8s0,0,0,0c0,0,0,0,0,0l3.6-12.1c0-.1.2-.1.2,0v12.1s0,0,0,0,0,0,0,0c0,0,0,0,0,0,0,0,0,0,0,0h1.7s0,0,0,0c0,0,0,0,0,0,0,0,0,0,0,0s0,0,0,0V.4s0,0,0,0c0,0,0,0,0,0,0,0,0,0,0,0,0,0,0,0,0,0ZM17.3,14.6h9.8s0,0,0,0c0,0,0,0,0,0,0,0,0,0,0,0,0,0,0,0,0,0v-1.5s0,0,0,0c0,0,0,0,0,0,0,0,0,0,0,0,0,0,0,0,0,0h-7.9s0,0,0,0c0,0,0,0,0,0,0,0,0,0,0,0,0,0,0,0,0,0V.4s0,0,0,0c0,0,0,0,0,0,0,0,0,0,0,0,0,0,0,0,0,0h-1.7s0,0,0,0c0,0,0,0,0,0,0,0,0,0,0,0,0,0,0,0,0,0v14s0,0,0,0c0,0,0,0,0,0,0,0,0,0,0,0,0,0,0,0,0,0Z" fill="#fff"/>
      <path d="M7.5,28.5c2.4,0,4.3-1.9,4.3-4.3s-1.9-4.3-4.3-4.3-4.3,1.9-4.3,4.3,1.9,4.3,4.3,4.3Z" fill="#ccebd4"/>
    </g>
  </g>
</svg>